<svg width="148" height="6" viewBox="0 0 148 6" fill="none" xmlns="http://www.w3.org/2000/svg">
<path d="M133.2 6C129.089 6 126.951 4.54286 125.142 3.25714C123.333 2.05714 121.689 0.857143 118.4 0.857143C115.111 0.857143 113.467 2.05714 111.658 3.25714C109.849 4.54286 107.711 6 103.6 6C99.4889 6 97.3511 4.54286 95.5422 3.25714C93.7333 2.05714 92.0889 0.857143 88.8 0.857143C85.5111 0.857143 83.8667 2.05714 82.0578 3.25714C80.2489 4.54286 78.1111 6 74 6C69.8889 6 67.7511 4.54286 65.9422 3.25714C64.1333 2.05714 62.4889 0.857143 59.2 0.857143C55.9111 0.857143 54.2667 2.05714 52.4578 3.25714C50.6489 4.54286 48.5111 6 44.4 6C40.2889 6 38.1511 4.54286 36.3422 3.25714C34.5333 2.05714 32.8889 0.857143 29.6 0.857143C26.3111 0.857143 24.6667 2.05714 22.8578 3.25714C21.0489 4.54286 18.9111 6 14.8 6C10.6889 6 8.55111 4.54286 6.74222 3.25714C4.93333 2.05714 3.28889 0.857143 0 0.857143V0C4.11111 0 6.24889 1.45714 8.05778 2.74286C9.86667 3.94286 11.5111 5.14286 14.8 5.14286C18.0889 5.14286 19.7333 3.94286 21.5422 2.74286C23.3511 1.45714 25.4889 0 29.6 0C33.7111 0 35.8489 1.45714 37.6578 2.74286C39.4667 3.94286 41.1111 5.14286 44.4 5.14286C47.6889 5.14286 49.3333 3.94286 51.1422 2.74286C52.9511 1.45714 55.0889 0 59.2 0C63.3111 0 65.4489 1.45714 67.2578 2.74286C69.0667 3.94286 70.7111 5.14286 74 5.14286C77.2889 5.14286 78.9333 3.94286 80.7422 2.74286C82.5511 1.45714 84.6889 0 88.8 0C92.9111 0 95.0489 1.45714 96.8578 2.74286C98.6667 3.94286 100.311 5.14286 103.6 5.14286C106.889 5.14286 108.533 3.94286 110.342 2.74286C112.151 1.45714 114.289 0 118.4 0C122.511 0 124.649 1.45714 126.458 2.74286C128.267 3.94286 129.911 5.14286 133.2 5.14286C136.489 5.14286 138.133 3.94286 139.942 2.74286C141.751 1.45714 143.889 0 148 0V0.857143C144.711 0.857143 143.067 2.05714 141.258 3.25714C139.449 4.54286 137.311 6 133.2 6Z" fill="#D9D9D9"/>
</svg>
