<?xml version="1.0" standalone="no"?>
<!DOCTYPE svg PUBLIC "-//W3C//DTD SVG 20010904//EN"
 "http://www.w3.org/TR/2001/REC-SVG-20010904/DTD/svg10.dtd">
<svg version="1.0" xmlns="http://www.w3.org/2000/svg"
 width="100.000000pt" height="100.000000pt" viewBox="0 0 100 100"
 preserveAspectRatio="xMidYMid meet">

<g transform="translate(-20.000000,110.000000) scale(0.100000,-0.100000)"
fill="#1C1C1C" stroke="none">
<path d="M636 1065 c-35 -32 -37 -101 -3 -132 43 -40 59 -37 112 17 l49 50
-44 45 c-50 51 -75 56 -114 20z"/>
<path d="M378 964 c-15 -8 -32 -23 -38 -34 -32 -61 16 -140 85 -140 44 0 95
45 95 84 0 39 -21 76 -51 92 -35 18 -57 17 -91 -2z"/>
<path d="M927 932 c-20 -21 -37 -42 -37 -48 0 -5 19 -29 43 -52 l43 -42 47 48
47 48 -43 42 c-23 23 -47 42 -53 42 -5 0 -27 -17 -47 -38z"/>
<path d="M262 657 c-49 -50 -54 -82 -16 -118 52 -48 154 -16 154 50 0 16 -15
40 -42 68 -23 24 -45 43 -48 43 -3 0 -25 -19 -48 -43z"/>
<path d="M1026 675 c-38 -35 -33 -64 19 -115 l45 -44 45 44 c58 57 60 97 4
125 -42 22 -82 19 -113 -10z"/>
<path d="M371 376 l-43 -43 49 -46 48 -46 45 44 44 45 -44 45 c-24 25 -47 45
-50 45 -3 0 -25 -20 -49 -44z"/>
<path d="M906 389 c-35 -41 -34 -83 3 -120 42 -42 99 -41 135 2 29 35 33 67
11 108 -17 33 -33 41 -85 41 -30 0 -44 -6 -64 -31z"/>
<path d="M650 265 l-44 -45 49 -50 c53 -54 69 -57 113 -17 22 21 30 75 16 112
-7 17 -54 45 -76 45 -8 0 -34 -20 -58 -45z"/>
</g>
</svg>
