<?xml version="1.0" encoding="UTF-8"?>
<svg width="338px" height="386px" viewBox="0 0 338 386" version="1.1" xmlns="http://www.w3.org/2000/svg" xmlns:xlink="http://www.w3.org/1999/xlink">
    <!-- Generator: Sketch 45.2 (43514) - http://www.bohemiancoding.com/sketch -->
    <title>night-owl</title>
    <desc>Created with Sketch.</desc>
    <defs></defs>
    <g id="Page-1" stroke="none" stroke-width="1" fill="none" fill-rule="evenodd">
        <g id="night-owl" transform="translate(2.000000, 3.000000)">
            <g id="bg">
                <g id="colors" transform="translate(280.000000, 7.000000)" fill-rule="nonzero" fill="#FFF8DE">
                    <path d="M19.21,0.47 C33.6800358,0.469918133 46.5529531,9.65972396 51.2530921,23.3451406 C55.9532311,37.0305573 51.44301,52.190453 40.0263105,61.0809483 C28.609611,69.9714437 12.806733,70.6299125 0.69,62.72 L0.94,62.72 C11.2043813,62.912701 20.7726109,57.5469978 25.9612363,48.688509 C31.1498617,39.8300203 31.1498617,28.8599797 25.9612363,20.001491 C20.7726109,11.1430022 11.2043813,5.777299 0.94,5.97 L0.69,5.97 C6.19377533,2.36744807 12.6320283,0.455439886 19.21,0.47 L19.21,0.47 Z" id="Shape"></path>
                </g>
                <g id="shadows" transform="translate(283.000000, 8.000000)" fill-rule="nonzero">
                    <path d="M14.95,9.93 C39.85,9.41 49.69,18.36 49.71,38.49 C47.03,4.06 28.86,-4.95 0.01,3.59 L14.95,9.93 Z" id="Shape" fill="#FFFFFF" opacity="0.7"></path>
                    <path d="M22.95,46.77 C33.2,48.48 41.95,46.95 49.07,41.64 C40.99,63.38 25.44,71.93 0.07,63.14 C9.12717367,60.0261114 17.0788421,54.336915 22.95,46.77 L22.95,46.77 Z" id="Shape" fill="#8A4500" opacity="0.02"></path>
                </g>
                <g id="lines" stroke-linecap="round" stroke-linejoin="round" stroke="#D3E0EB" stroke-width="5">
                    <path d="M333.1,41.35 C333.102352,53.7893639 326.287703,65.2296471 315.348232,71.1512805 C304.40876,77.0729139 291.103963,76.5234659 280.69,69.72 L280.94,69.72 C296.61108,69.72 309.315,57.0160798 309.315,41.345 C309.315,25.6739202 296.61108,12.97 280.94,12.97 L280.69,12.97 C291.105465,6.16555155 304.412456,5.61699555 315.352631,11.5410974 C326.292807,17.4651993 333.106025,28.9088431 333.1,41.35 Z" id="Shape"></path>
                    <path d="M291.56,166.33 L306.89,166.33" id="Shape"></path>
                    <path d="M299.23,174 L299.23,158.67" id="Shape"></path>
                    <path d="M179.09,7.46 L193.39,7.46" id="Shape"></path>
                    <path d="M186.24,14.61 L186.24,0.32" id="Shape"></path>
                    <path d="M0.75,152.21 L15.38,152.21" id="Shape"></path>
                    <path d="M8.07,159.52 L8.07,144.9" id="Shape"></path>
                    <path d="M33.41,31.82 L45.12,31.82" id="Shape"></path>
                    <path d="M39.26,37.67 L39.26,25.96" id="Shape"></path>
                </g>
            </g>
            <g id="main" transform="translate(28.000000, 40.000000)">
                <g id="colors-2" transform="translate(3.000000, 1.000000)" fill-rule="nonzero">
                    <path d="M179.07,306.76 C179.64,306.5 180.2,306.22 180.76,305.95 C180.2,306.23 179.64,306.5 179.07,306.76 Z" id="Shape" fill="#E07070"></path>
                    <path d="M171.71,316.84 L171.71,317.58 C171.7,317.35 171.7,317.09 171.71,316.84 Z" id="Shape" fill="#E07070"></path>
                    <path d="M180.02,191.65 L171.44,191.65 L164.84,177.23 C164.642127,176.799971 164.213358,176.52322 163.74,176.52 L97.58,176.52 C97.1030195,176.51933 96.6693932,176.796695 96.47,177.23 L89.88,191.65 L81.3,191.65 C80.1057115,191.647337 78.959571,192.120588 78.1150794,192.965079 C77.2705878,193.809571 76.7973371,194.955711 76.8,196.15 L76.8,202.28 C76.7973371,203.474289 77.2705878,204.620429 78.1150794,205.464921 C78.959571,206.309412 80.1057115,206.782663 81.3,206.78 L180.02,206.78 C181.214289,206.782663 182.360429,206.309412 183.204921,205.464921 C184.049412,204.620429 184.522663,203.474289 184.52,202.28 L184.52,196.15 C184.522663,194.955711 184.049412,193.809571 183.204921,192.965079 C182.360429,192.120588 181.214289,191.647337 180.02,191.65 L180.02,191.65 Z" id="Shape" fill="#FF906E"></path>
                    <path d="M143.5,246 C147.889098,250.39912 147.889098,257.52088 143.5,261.92 L133.75,271.67 C129.353813,276.068948 122.223948,276.071187 117.825,271.675 C113.426052,267.278813 113.423813,260.148948 117.82,255.75 L127.57,246 C131.970271,241.604246 139.099729,241.604246 143.5,246 Z" id="Shape" fill="#A36F6F"></path>
                    <path d="M136.69,154.47 L136.69,176.52 L124.63,176.52 L124.63,135.35 L124.63,135.35 C128.74695,135.806614 132.795221,136.749867 136.69,138.16 L136.69,154.47 Z" id="Shape" fill="#E6B8A1"></path>
                    <path d="M208.5,61.11 C183.753333,48.0433333 159.006667,48.0433333 134.26,61.11 L134.26,61.11 C131.005756,67.1881331 129.302039,73.9755241 129.3,80.87 C144.87,92.01 157.87,103.42 162.79,122.05 C181.092156,125.827247 199.695863,117.099381 208.49,100.61 C215.057154,88.26221 215.057154,73.45779 208.49,61.11 L208.5,61.11 Z" id="Shape" fill="#F5EFD0"></path>
                    <path d="M50.13,61.12 C40.7184644,78.816685 45.1022474,100.695951 60.6050944,113.400729 C76.1079414,126.105508 98.4220586,126.105508 113.924906,113.400729 C129.427753,100.695951 133.811536,78.816685 124.4,61.12 C99.6666667,48.04 74.91,48.04 50.13,61.12 Z" id="Shape" fill="#F5EFD0"></path>
                    <path d="M130.66,38.8 C137.178631,16.0410376 157.985902,0.353986898 181.66,0.35 L227.16,0.35 C219.812468,10.9284846 210.421214,19.9287198 199.54,26.82 C174.72,15.8 146.42,18.51 130.66,38.8 Z" id="Shape" fill="#00BFFF"></path>
                    <path d="M130.66,38.8 C114.89,18.52 86.6,15.8 61.78,26.8 C50.9007043,19.9145742 41.5095864,10.9212698 34.16,0.35 L79.66,0.35 C103.334098,0.353986898 124.141369,16.0410376 130.66,38.8 Z" id="Shape" fill="#00BFFF"></path>
                    <path d="M166.11,134.95 C165.875625,130.594018 165.205615,126.272456 164.11,122.05 C159.19,103.42 146.19,92.05 130.62,80.87 C130.647135,94.778436 123.787085,107.798303 112.3,115.64 C107.13,119.85 104.3,125.81 104.3,134.98 L104.3,135.27 C104.335884,139.506828 105.778051,143.611729 108.4,146.94 C112.128491,151.695708 117.836954,154.472499 123.88,154.47 L124.69,154.47 L124.69,135.35 L124.69,135.35 C128.80695,135.806614 132.855221,136.749867 136.75,138.16 L136.75,154.5 L140.3,154.5 C148.89,154.5 152.99,152.32 156.15,150.5 C159.131501,153.479579 161.752785,156.798978 163.96,160.39 C164.850169,155.953062 165.48786,151.469189 165.87,146.96 C166.226612,142.966978 166.306803,138.954081 166.11,134.95 Z" id="Shape" fill="#FFAF33"></path>
                    <path d="M172.71,38.81 C188.257011,38.8001037 202.537713,47.379297 209.83,61.11 C185.083333,48.0366667 160.336667,48.0366667 135.59,61.11 L135.59,61.11 C142.892327,47.3888251 157.166686,38.8134424 172.71,38.81 Z" id="Shape" fill="#00BFFF"></path>
                    <path d="M88.59,38.81 C104.143265,38.8057935 118.428658,47.3870293 125.73,61.12 C100.983333,48.04 76.2266667,48.04 51.46,61.12 C58.7512796,47.3822522 73.0372402,38.7983637 88.59,38.81 L88.59,38.81 Z" id="Shape" fill="#00BFFF"></path>
                    <path d="M171.93,314.86 C172.629079,311.516209 174.874421,308.703036 177.98,307.28 L179.07,306.76 C179.64,306.5 180.2,306.23 180.76,305.95 C180.2,306.22 179.64,306.5 179.07,306.76 C173.611216,309.365123 167.919478,311.450978 162.07,312.99 C156.482981,314.503485 150.713935,311.259621 149.104294,305.699542 C147.494654,300.139463 150.638515,294.315316 156.17,292.61 C158.84,291.77 161.44,290.86 163.98,289.86 C166.52,288.86 169.15,287.72 171.64,286.53 C170.177531,287.223779 168.578685,287.582494 166.96,287.58 C161.801077,287.603553 157.311095,284.057299 156.138822,279.033275 C154.96655,274.00925 157.423397,268.84207 162.06,266.58 C164.27,265.49 166.5,264.33 168.73,263.09 C172.92,260.77 177.1,258.21 181.13,255.49 C196.34095,245.23986 205.567989,228.190385 205.83,209.85 L205.83,209.85 C205.83,274.15 249.33,273.29 258.42,234.11 C250.70823,274.563036 224.315716,308.984186 187.25,326.93 C185.804969,327.635279 184.217959,328.001249 182.61,328 C178.073164,327.990929 174.017262,325.170125 172.43,320.92 C172.026666,319.842698 171.793867,318.709068 171.74,317.56 L171.74,316.82 C171.744122,316.162275 171.807714,315.50627 171.93,314.86 L171.93,314.86 Z" id="Shape" fill="#00BFFF"></path>
                    <path d="M89.72,286.53 C92,287.63 94.35,288.65 96.72,289.61 L96.72,289.61 C99.45,290.71 102.26,291.7 105.15,292.61 C110.452724,294.477243 113.381571,300.153551 111.83047,305.557213 C110.27937,310.960875 104.785771,314.219552 99.3,312.99 C93.4511152,311.453411 87.7594596,309.370934 82.3,306.77 L83.39,307.28 C86.4763488,308.715421 88.7015086,311.526539 89.39,314.86 C89.5247826,315.518467 89.5984291,316.18798 89.61,316.86 L89.61,317.6 C89.5561331,318.749068 89.3233341,319.882698 88.92,320.96 C87.3327383,325.210125 83.2768359,328.030929 78.74,328.04 C77.1320411,328.041249 75.5450312,327.675279 74.1,326.97 C37.0487165,309.006481 10.6626133,274.593693 2.93,234.15 C12.02,273.33 55.52,274.15 55.52,209.89 L55.52,209.89 C55.7820112,228.230385 65.00905,245.27986 80.22,255.53 C83.94,258.05 87.8,260.43 91.67,262.6 L91.67,262.6 C94.21,264.03 96.76,265.37 99.29,266.6 C103.928345,268.862859 106.385122,274.032833 105.210146,279.058189 C104.03517,284.083545 99.5408115,287.628277 94.38,287.6 C92.7665047,287.593612 91.1746679,287.228104 89.72,286.53 L89.72,286.53 Z" id="Shape" fill="#00BFFF"></path>
                    <path d="M171.71,317.58 L171.71,326.81 C171.71,331.228278 168.128278,334.81 163.71,334.81 C159.291722,334.81 155.71,331.228278 155.71,326.81 L155.71,314.87 L171.71,314.87 L171.71,316.87 C171.7,317.09 171.7,317.35 171.71,317.58 Z" id="Shape" fill="#FFAF33"></path>
                    <path d="M155.73,326.81 L155.73,330.19 C155.73,334.608278 152.148278,338.19 147.73,338.19 C143.311722,338.19 139.73,334.608278 139.73,330.19 L139.73,314.87 L155.73,314.87 L155.73,326.81 Z" id="Shape" fill="#FFAF33"></path>
                    <path d="M121.56,314.87 L121.56,330.19 C121.56,334.608278 117.978278,338.19 113.56,338.19 C109.141722,338.19 105.56,334.608278 105.56,330.19 L105.56,314.87 L121.56,314.87 Z" id="Shape" fill="#FFAF33"></path>
                    <path d="M105.59,314.87 L105.59,326.81 C105.59,331.228278 102.008278,334.81 97.59,334.81 C93.171722,334.81 89.59,331.228278 89.59,326.81 L89.59,317.58 C89.59,317.33 89.59,317.09 89.59,316.84 L89.59,314.84 L105.59,314.84 L105.59,314.87 Z" id="Shape" fill="#FFAF33"></path>
                    <path d="M55.52,145.48 C45.1531648,143.187611 35.8009951,137.615583 28.85,129.59 C13,111.31 10.71,82.03 25.25,59.01 C33.8488013,44.7972228 46.5983517,33.5624013 61.78,26.82 C86.6,15.82 114.89,18.52 130.66,38.82 C146.42,18.53 174.72,15.82 199.54,26.82 C214.716902,33.5657484 227.462335,44.8000163 236.06,59.01 C250.61,82.01 248.32,111.31 232.47,129.59 C225.51202,137.605272 216.162366,143.172295 205.8,145.47 C201.422379,146.456732 196.94742,146.946495 192.46,146.93 L165.9,146.93 C166.246341,142.939613 166.316508,138.930062 166.11,134.93 C165.875625,130.574018 165.205615,126.252456 164.11,122.03 C182.412156,125.807247 201.015863,117.079381 209.81,100.59 C218.034249,85.1352215 215.82536,66.2022277 204.264241,53.0557839 C192.703122,39.9093402 174.20768,35.2989092 157.828567,41.4805824 C141.449453,47.6622555 130.612215,63.3431903 130.62,80.85 C130.573182,61.5553809 117.386269,44.7746618 98.6498225,40.1670478 C79.9133764,35.5594338 60.4477968,44.3103437 51.45773,61.3826376 C42.4676632,78.4549315 46.266019,99.4563531 60.6664135,112.298205 C75.0668079,125.140057 96.3643948,126.518465 112.3,115.64 C107.13,119.85 104.3,125.81 104.3,134.98 L104.3,135.27 C104.335884,139.506828 105.778051,143.611729 108.4,146.94 L68.85,146.94 C64.3659095,146.955998 59.8943183,146.466237 55.52,145.48 L55.52,145.48 Z" id="Shape" fill="#00BFFF"></path>
                    <path d="M166.92,287.58 C161.761077,287.603553 157.271095,284.057299 156.098822,279.033275 C154.92655,274.00925 157.383397,268.84207 162.02,266.58 C164.23,265.49 166.46,264.33 168.69,263.09 L171.18,228.09 L89.18,228.09 L91.64,262.6 L91.64,262.6 C94.18,264.03 96.73,265.37 99.26,266.6 C103.898345,268.862859 106.355122,274.032833 105.180146,279.058189 C104.00517,284.083545 99.5108115,287.628277 94.35,287.6 C92.7346522,287.601343 91.1393114,287.242648 89.68,286.55 C91.96,287.65 94.31,288.67 96.68,289.63 L163.77,289.63 L163.87,289.88 C166.49,288.853333 169.043333,287.743333 171.53,286.55 C170.087306,287.226795 168.513554,287.578415 166.92,287.58 L166.92,287.58 Z M143.5,261.92 L133.75,271.67 C129.353813,276.068948 122.223948,276.071187 117.825,271.675 C113.426052,267.278813 113.423813,260.148948 117.82,255.75 L127.57,246 C131.966187,241.601052 139.096052,241.598813 143.495,245.995 C147.893948,250.391187 147.896187,257.521052 143.5,261.92 L143.5,261.92 Z" id="Shape" fill="#E6A88A"></path>
                    <polygon id="Shape" fill="#F2F7FF" points="87.71 206.78 89.22 228.07 171.22 228.07 172.74 206.78"></polygon>
                    <path d="M99.3,312.99 C100.165708,313.212231 101.056228,313.323126 101.95,313.32 C107.176608,313.324964 111.628297,309.522866 112.44102,304.35983 C113.253743,299.196794 110.185381,294.210951 105.21,292.61 C102.32,291.7 99.51,290.71 96.78,289.61 L163.86,289.61 L163.96,289.86 C161.42,290.86 158.82,291.77 156.15,292.61 C150.618515,294.315316 147.474654,300.139463 149.084294,305.699542 C150.693935,311.259621 156.462981,314.503485 162.05,312.99 C167.899478,311.450978 173.591216,309.365123 179.05,306.76 L177.96,307.28 C174.854421,308.703036 172.609079,311.516209 171.91,314.86 L89.39,314.86 C88.7015086,311.526539 86.4763488,308.715421 83.39,307.28 L82.3,306.77 C87.7594596,309.370934 93.4511152,311.453411 99.3,312.99 Z" id="Shape" fill="#F2F7FF"></path>
                    <path d="M89.61,316.84 C89.61,317.09 89.61,317.33 89.61,317.58 L89.61,316.84 Z" id="Shape" fill="#E07070"></path>
                    <path d="M89.39,314.86 L171.93,314.86 C171.795217,315.518467 171.721571,316.18798 171.71,316.86 L171.71,314.86 L89.61,314.86 L89.61,316.86 C89.5984291,316.18798 89.5247826,315.518467 89.39,314.86 L89.39,314.86 Z" id="Shape" fill="#E07070"></path>
                    <path d="M205.8,209.87 L205.8,209.87 C205.8,209.6 205.8,209.33 205.8,209.06 L205.8,145.47 C216.162366,143.172295 225.51202,137.605272 232.47,129.59 C250.675994,152.390808 260.610452,180.69238 260.65,209.87 C260.651966,218.009316 259.895361,226.131103 258.39,234.13 C249.3,273.35 205.8,274.17 205.8,209.87 Z" id="Shape" fill="#00BFFF"></path>
                    <path d="M55.52,209.87 C55.52,274.17 12.02,273.31 2.93,234.13 C1.42463911,226.131103 0.668034081,218.009316 0.67,209.87 C0.709548244,180.69238 10.6440064,152.390808 28.85,129.59 C35.8009951,137.615583 45.1531648,143.187611 55.52,145.48 L55.52,209.06 C55.52,209.33 55.52,209.6 55.52,209.87 L55.52,209.87 Z" id="Shape" fill="#00BFFF"></path>
                    <path d="M171.18,228.07 L172.7,206.78 L180.02,206.78 C181.214289,206.782663 182.360429,206.309412 183.204921,205.464921 C184.049412,204.620429 184.522663,203.474289 184.52,202.28 L184.52,196.15 C184.522663,194.955711 184.049412,193.809571 183.204921,192.965079 C182.360429,192.120588 181.214289,191.647337 180.02,191.65 L171.44,191.65 L164.84,177.23 C164.642127,176.799971 164.213358,176.52322 163.74,176.52 L136.69,176.52 L136.69,154.47 L140.3,154.47 C148.89,154.47 152.99,152.29 156.15,150.47 C159.131501,153.449579 161.752785,156.768978 163.96,160.36 C164.850126,155.923055 165.487817,151.439184 165.87,146.93 L192.43,146.93 C196.91742,146.946495 201.392379,146.456732 205.77,145.47 L205.77,209.06 C205.77,209.33 205.77,209.6 205.77,209.87 C205.507989,228.210385 196.28095,245.25986 181.07,255.51 C177.07,258.23 172.86,260.79 168.67,263.11 L171.18,228.07 Z" id="Shape" fill="#00BFFF"></path>
                    <path d="M124.63,154.47 L124.63,176.52 L97.58,176.52 C97.1030195,176.51933 96.6693932,176.796695 96.47,177.23 L89.88,191.65 L81.3,191.65 C80.1057115,191.647337 78.959571,192.120588 78.1150794,192.965079 C77.2705878,193.809571 76.7973371,194.955711 76.8,196.15 L76.8,202.28 C76.7973371,203.474289 77.2705878,204.620429 78.1150794,205.464921 C78.959571,206.309412 80.1057115,206.782663 81.3,206.78 L87.71,206.78 L91.71,262.58 C87.84,260.41 83.98,258.03 80.26,255.51 C65.04905,245.25986 55.8220112,228.210385 55.56,209.87 C55.56,209.6 55.56,209.33 55.56,209.06 L55.56,145.48 C59.9343183,146.466237 64.4059095,146.955998 68.89,146.94 L108.3,146.94 C112.028491,151.695708 117.736954,154.472499 123.78,154.47 L124.63,154.47 Z" id="Shape" fill="#00BFFF"></path>
                </g>
                <g id="shadows-2" transform="translate(10.000000, 0.000000)" fill-rule="nonzero">
                    <path d="M81.59,39.81 C45.52,37.61 27.48,57.88 27.48,81.87 C26.98,95.74 32.34,109.68 47.29,123.72 C54.77,128.97 62.8,132.52 71.85,132.97 C78.64,135.42 86.98,136.52 97.24,135.97 L100.66,120.35 C71.61,129.41 49.98,122.23 40.66,88.12 C38.5,54.79 56.2,43.11 81.59,39.81 Z" id="Shape" fill="#0047FF" opacity="0.25"></path>
                    <path d="M159.23,136.02 C164.814404,135.822193 170.338262,134.794263 175.62,132.97 C184.62,132.52 192.7,128.97 200.18,123.72 C215.13,109.72 220.49,95.72 219.99,81.87 C219.99,57.87 201.99,37.62 165.88,39.81 C191.27,43.1 208.97,54.81 206.81,88.11 C198.62,118.06 180.95,127.25 157.1,122.92 L159.23,136.02 Z" id="Shape" fill="#0047FF" opacity="0.25"></path>
                    <path d="M156.99,161.35 L148.85,151.65 C149.54,139.65 148.39,127.05 143.79,120.34 C135.3,108.47 121.3,107.23 109.3,113.82 C117.23,106.3 122.3,96.16 124.21,83.22 C159.05,103.49 162.23,131.41 156.99,161.35 Z" id="Shape" fill="#FFFFFF" opacity="0.4"></path>
                    <path d="M165.69,205.93 L80.69,205.93 L81.54,217.93 L139.71,217.93 C142.527314,217.931734 145.220457,219.08965 147.159937,221.133099 C149.099417,223.176547 150.115251,225.926432 149.97,228.74 L148.82,250.8 C147.44,277.11 120.57,294.61 96.16,284.68 C95.64,284.466667 95.1566667,284.256667 94.71,284.05 C92.7375989,285.644177 90.6180568,287.04716 88.38,288.24 L101.66,293.68 C108.09,302.88 105.82,309.61 95.38,314.04 L150.1,314.04 C139.46,307.04 138.88,299.37 148.83,291.11 L157.99,287.44 C150.99,285.8 147.93,281.44 148.99,274.15 C150.89,269.56 155.4,265.68 161.72,262.29 L165.72,213.44 L165.19,213.44 L165.69,205.93 Z" id="Shape" fill="#946A6A" opacity="0.25"></path>
                    <path d="M97.24,135.98 C99.03,147.78 104.41,155.77 117.63,155.47 L117.63,136.35 L97.24,135.98 Z" id="Shape" fill="#F06C00" opacity="0.6"></path>
                    <path d="M130.19,139.35 C137.36,142.55 143.59,146.35 147.85,151.51 C142.91597,154.676443 137.162287,156.327802 131.3,156.26 L130.19,139.35 Z" id="Shape" fill="#F06C00" opacity="0.6"></path>
                    <path d="M78.67,0.69 L28.47,0.69 C30.35,3.57 32.32,6.29666667 34.38,8.87 L36.46,11.74 L36.79,11.74 C41.9139195,17.7256104 47.9967451,22.8182871 54.79,26.81 C52.0625007,24.0090203 49.7430576,20.8378803 47.9,17.39 C47.261365,16.1991289 47.29754,14.7598483 47.9951939,13.6025637 C48.6928478,12.445279 49.9487219,11.741278 51.3,11.75 L77.3,11.75 C100.68,12.1 117.41,24.01 123.67,38.82 C117.82,16.74 100.94,5.96 78.67,0.69 Z" id="Shape" fill="#FFFFFF" opacity="0.4"></path>
                    <path d="M168.64,0.69 L218.84,0.69 C216.96,3.57 214.99,6.29666667 212.93,8.87 L210.85,11.74 L210.52,11.74 C205.39608,17.7256104 199.313255,22.8182871 192.52,26.81 C195.247499,24.0090203 197.566942,20.8378803 199.41,17.39 C200.051854,16.2015444 200.020251,14.7628709 199.326828,13.6037471 C198.633405,12.4446233 197.3807,11.7364499 196.03,11.74 L170.03,11.74 C146.66,12.09 129.92,24 123.66,38.81 C129.48,16.74 146.37,5.96 168.64,0.69 Z" id="Shape" fill="#FFFFFF" opacity="0.4"></path>
                    <path d="M189.76,147.79 L159.31,148.5 L157.96,159.9 L158.05,159.9 L157.96,160.76 L148.85,151.66 C143.69,154.23 137.28,155.47 129.69,155.47 L129.69,177.52 L156.69,177.52 L164.14,192.65 L177.47,192.65 L177.47,207.78 L165.7,207.78 L161.7,264.11 C178.52,255.99 191.7,243.27 198.8,222.84 L198.8,146.68 L189.76,147.79 Z" id="Shape" fill="#0047FF" opacity="0.25"></path>
                    <path d="M66.59,147.94 L66.59,205.94 C66.59,221.11 68.41,232.4 83.16,242.29 L84.68,263.6 C62.0133333,251.92 49.9533333,235.076667 48.5,213.07 L48.5,159.44 L49.44,146.67 L66.59,147.94 Z" id="Shape" fill="#0047FF" opacity="0.22"></path>
                    <polygon id="Shape" fill="#946A6A" opacity="0.4" points="116.91 147.78 130.19 150.01 130.19 139.31 117.63 136.32"></polygon>
                    <path d="M246.6,248.14 C240.26,256.23 241.08,259.05 231.16,258.76 C245.42,235.14 244.21,212.88 238.65,185.85 C235.027105,168.881399 218.958796,157.556486 201.76,159.85 L201.47,159.85 L201.47,147.05 L202.05,145.8 C213.65,143.92 220.79,137.87 228.41,130.96 L235.99,142.61 C249.47,171.04 259.8,204.81 246.6,248.14 Z" id="Shape" fill="#0047FF" opacity="0.2"></path>
                    <path d="M26.3,164.16 L26.3,205.16 C26.3,211.732189 20.9721885,217.06 14.4,217.06 L14.4,217.06 C11.1814648,217.064183 8.0987278,215.763383 5.85609665,213.454792 C3.6134655,211.146201 2.40254786,208.027062 2.5,204.81 C3.1,187.02 6.36,175.68 13.5,161.15 C14.6371469,158.843092 16.9880562,157.384442 19.56,157.39 L19.56,157.39 C21.3519484,157.392647 23.0693039,158.107722 24.3335874,159.377632 C25.5978708,160.647543 26.3053114,162.368057 26.3,164.16 L26.3,164.16 Z" id="Shape" fill="#FFFFFF" opacity="0.3"></path>
                    <path d="M246.6,253.66 C234.97,287.66 211.85,312.13 179.23,328.85 C165.43,333.64 158.23,313.03 172.07,308.24 C185.41,301.52 197.15,294.07 205.67,285.16 C212.163116,278.45374 217.928534,271.079368 222.87,263.16 C230.24,264.64 238.22,260.9 246.6,253.66 Z" id="Shape" fill="#0047FF" opacity="0.15"></path>
                    <path d="M0.3,240.93 C18.16,266.6 44.65,242.54 46.18,207.78 C47.6,241.55 49.3,248.98 27.45,262.35 C9.96,264.48 4.39,259.99 0.3,240.93 Z" id="Shape" fill="#0047FF" opacity="0.15"></path>
                    <path d="M217.5,219.61 L217.5,219.61 C211.689964,219.61 206.98,214.900036 206.98,209.09 L206.98,185.73 C206.98,180.925123 210.875123,177.03 215.68,177.03 L215.68,177.03 C219.022493,177.014434 222.074827,178.926037 223.52,181.94 C226.73,188.73 227.73,197.7 228.02,208.82 C228.092826,211.65656 227.016705,214.402255 225.035874,216.433925 C223.055043,218.465594 220.337494,219.610935 217.5,219.61 L217.5,219.61 Z" id="Shape" fill="#FFFFFF" opacity="0.3"></path>
                    <path d="M116.93,59.76 L117.93,60.55 C118.758366,62.2033279 119.499385,63.8989936 120.15,65.63 C123.803555,73.618025 124.580854,82.6241013 122.35,91.12 C122.35,91.21 122.35,91.31 122.35,91.4 L122.35,91.4 C116.81,112.4 94.55,128.6 72.21,123.4 L70.9,118.97 C87.06,120.87 98.52,112.7 104.06,101.45 C112.36,84.59 105.19,64.38 88.79,55.21 C86.8185839,54.1124062 84.7698286,53.1598854 82.66,52.36 L116.93,59.76 Z" id="Shape" fill="#F08400" opacity="0.15"></path>
                    <path d="M200.86,59.68 L202.21,60.76 C203.3642,63.0963866 204.340309,65.5166018 205.13,68 C207.624589,74.5716656 208.240919,81.7079412 206.91,88.61 C206.79,89.54 206.65,90.47 206.47,91.41 L206.34,91.16 C200.89,112.25 178.56,128.6 156.15,123.4 L154.84,118.97 C171.67,120.97 183.4,111.97 188.65,100.03 C194.55,86.6 191.17,70.97 180.98,60.42 C178.139125,57.5260961 175.112715,54.820365 171.92,52.32 L200.86,59.68 Z" id="Shape" fill="#F08400" opacity="0.15"></path>
                    <path d="M50.19,223.04 C49.7166667,221.26 49.3266667,219.423333 49.02,217.53 C49.44,219.4 49.84,221.24 50.19,223.04 Z" id="Shape" fill="#0047FF" opacity="0.15"></path>
                    <path d="M5.54,258.26 C17.79,286.32 55.29,269.26 53.04,231.76 C51.79,228.76 46.84,224.08 46.84,224.08 C48.54,246.26 30.79,272.51 5.54,258.26 Z" id="Shape" fill="#0047FF" opacity="0.2"></path>
                    <g id="Group" opacity="0.3" transform="translate(50.000000, 221.000000)" fill="#FFFFFF">
                        <path d="M146.73,0.35 L146.73,0.35 L150.63,14.22 C146.654789,25.6906876 139.064681,35.5616883 129,42.35 C122.901965,46.4745028 116.530611,50.1797103 109.93,53.44 C104.861321,55.9370442 102.49301,61.8556656 104.44,67.16 C104.486465,67.3006768 104.543287,67.4377185 104.61,67.57 C100.55771,65.9504051 97.8460298,62.0884531 97.6986974,57.7269814 C97.551365,53.3655097 99.9962442,49.329367 103.93,47.44 C110.530611,44.1797103 116.901965,40.4745028 123,36.35 C135.397845,27.9982023 143.941936,15.0362451 146.73,0.35 L146.73,0.35 Z" id="Shape"></path>
                        <path d="M97.22,93.81 C93.0173458,92.1888985 90.2982375,88.0887487 90.4400581,83.5865093 C90.5818786,79.0842699 93.5536495,75.1633828 97.85,73.81 C100.7,72.91 103.48,71.93 106.19,70.81 C108.63,69.81 111,68.81 113.32,67.7 C124.940789,62.1864137 135.467245,54.6142763 144.39,45.35 L144.39,45.35 C146.02038,46.9826926 146.901512,49.2178671 146.823823,51.5239004 C146.746134,53.8299336 145.716568,56.0007379 143.98,57.52 C136.523257,64.024155 128.221404,69.490327 119.3,73.77 C114.295357,76.1639895 109.125422,78.1958712 103.83,79.85 C98.5847801,81.5209035 95.4973018,86.934862 96.73,92.3 C96.8507372,92.8161733 97.0146476,93.3212847 97.22,93.81 Z" id="Shape"></path>
                        <path d="M50.57,92.3 C51.8026982,86.934862 48.7152199,81.5209035 43.47,79.85 C38.1745783,78.1958712 33.0046426,76.1639895 28,73.77 C19.0755998,69.5135932 10.7671298,64.0710409 3.3,57.59 C1.56343224,56.0707379 0.533865769,53.8999336 0.456176891,51.5939004 C0.378488013,49.2878671 1.25961971,47.0526926 2.89,45.42 L2.89,45.42 C11.8127546,54.6842763 22.3392113,62.2564137 33.96,67.77 C36.28,68.88 38.65,69.92 41.09,70.88 C43.8,71.97 46.58,72.95 49.43,73.88 C53.7263505,75.2333828 56.6981214,79.1542699 56.8399419,83.6565093 C56.9817625,88.1587487 54.2626542,92.2588985 50.06,93.88 C50.2759769,93.3692978 50.446634,92.8405956 50.57,92.3 L50.57,92.3 Z" id="Shape"></path>
                        <path d="M41.61,66.73 C41.6767126,66.5977185 41.7335348,66.4606768 41.78,66.32 C43.753256,61.0179219 41.3830202,55.083682 36.3,52.6 C29.6982005,49.3419237 23.3266993,45.6366301 17.23,41.51 C16.49,41.01 15.7633333,40.4933333 15.05,39.96 C9.16076466,35.5301977 6.54304095,27.9735965 8.43,20.85 L8.43,20.85 C12.401914,26.6202314 17.4222793,31.5931068 23.23,35.51 C29.3266993,39.6366301 35.6982005,43.3419237 42.3,46.6 C46.1947786,48.5219067 48.6025229,52.5471493 48.453739,56.8877586 C48.3049551,61.2283678 45.6272377,65.0792951 41.61,66.73 L41.61,66.73 Z" id="Shape"></path>
                    </g>
                    <path d="M82.61,315.87 L98.46,315.87 L98.46,326.58 C98.46,328.683167 97.6245203,330.700193 96.1373568,332.187357 C94.6501933,333.67452 92.6331668,334.51 90.53,334.51 L90.53,334.51 C86.1503819,334.51 82.6,330.959618 82.6,326.58 L82.6,315.87 L82.61,315.87 Z" id="Shape" fill="#E89025"></path>
                    <path d="M173.02,193.03 L110.62,193.03 L110.62,192.03 L82.88,192.03 L82.88,193.03 L74.3,193.03 C71.8147186,193.03 69.8,195.044719 69.8,197.53 L69.8,203.53 C69.7973371,202.335711 70.2705878,201.189571 71.1150794,200.345079 C71.959571,199.500588 73.1057115,199.027337 74.3,199.03 L78.83,199.03 C81.039139,199.03 82.83,200.820861 82.83,203.03 L82.83,207.11 L110.57,207.11 L110.57,203.69 C110.57,201.088739 112.678739,198.98 115.28,198.98 L172.97,198.98 C174.164289,198.977337 175.310429,199.450588 176.154921,200.295079 C176.999412,201.139571 177.472663,202.285711 177.47,203.48 L177.47,197.48 C177.442966,195.033618 175.466382,193.057034 173.02,193.03 Z" id="Shape" fill="#FFFFFF" opacity="0.4"></path>
                    <path d="M160.3,183.52 L157.88,178.23 C157.682127,177.799971 157.253358,177.52322 156.78,177.52 L90.58,177.52 C90.1030195,177.51933 89.6693932,177.796695 89.47,178.23 L87.05,183.52 L92.39,183.52 C93.3040099,183.517216 94.1609914,183.963894 94.6821915,184.714742 C95.2033916,185.46559 95.3222106,186.424663 95,187.28 L93.42,191.51 L115.3,193.03 L116.16,186.79 C116.419334,184.922756 118.014835,183.532026 119.9,183.53 L160.3,183.52 Z" id="Shape" fill="#FFFFFF" opacity="0.4"></path>
                    <ellipse id="Oval" fill="#FFFFFF" opacity="0.75" transform="translate(59.259186, 78.386806) rotate(-69.330000) translate(-59.259186, -78.386806) " cx="59.2591864" cy="78.3868061" rx="16.86" ry="11.1"></ellipse>
                    <circle id="Oval" fill="#FFFFFF" opacity="0.75" cx="57.92" cy="102.86" r="4.13"></circle>
                </g>
                <g id="lines-2" transform="translate(0.000000, 1.000000)">
                    <circle id="Oval" stroke="#2D3F70" stroke-width="6" stroke-linecap="round" stroke-linejoin="round" cx="91.59" cy="80.86" r="42.06"></circle>
                    <circle id="Oval" fill="#2D3F70" fill-rule="nonzero" cx="91.59" cy="80.86" r="9.81"></circle>
                    <circle id="Oval" fill="#2D3F70" fill-rule="nonzero" cx="175.7" cy="80.86" r="16.86"></circle>
                    <path d="M167.12,122.05 C184.546242,125.685627 202.374055,117.957019 211.633034,102.752973 C220.892012,87.5489271 219.576727,68.162532 208.34899,54.3484229 C197.121252,40.5343139 178.412911,35.2845292 161.637425,41.2405983 C144.861938,47.1966675 133.652759,63.0685481 133.65,80.87" id="Shape" stroke="#2D3F70" stroke-width="6" stroke-linecap="round" stroke-linejoin="round"></path>
                    <path d="M133.65,80.87 C157.75,98.13 175.71,116 166.99,160.37 L166.99,160.37 C157.329972,144.597832 140.165335,134.981545 121.67,134.98 L107.23,134.98 C107.23,125.81 110.08,119.85 115.23,115.64" id="Shape" stroke="#2D3F70" stroke-width="6" stroke-linecap="round" stroke-linejoin="round"></path>
                    <path d="M139.69,154.47 L143.3,154.47 C151.89,154.47 155.99,152.29 159.15,150.47" id="Shape" stroke="#2D3F70" stroke-width="6" stroke-linecap="round" stroke-linejoin="round"></path>
                    <path d="M107.24,134.98 L107.24,135.27 C107.415075,145.947207 116.141432,154.499749 126.82,154.46 L127.64,154.46" id="Shape" stroke="#2D3F70" stroke-width="6" stroke-linecap="round" stroke-linejoin="round"></path>
                    <path d="M111.3,146.94 L71.85,146.94 C24.15,146.94 5.37,95.23 28.25,59.01 C52.61,18.56 108.77,6.76 133.66,38.82" id="Shape" stroke="#2D3F70" stroke-width="6" stroke-linecap="round" stroke-linejoin="round"></path>
                    <path d="M133.66,38.82 L133.66,38.82 C127.141369,16.0610376 106.334098,0.373986898 82.66,0.37 L37.16,0.37 C44.5075319,10.9484846 53.8987859,19.9487198 64.78,26.84" id="Shape" stroke="#2D3F70" stroke-width="6" stroke-linecap="round" stroke-linejoin="round"></path>
                    <path d="M133.66,38.82 C158.55,6.76 214.66,18.56 239.06,59.01 C261.95,95.23 243.17,146.94 195.46,146.94 L168.89,146.94" id="Shape" stroke="#2D3F70" stroke-width="6" stroke-linecap="round" stroke-linejoin="round"></path>
                    <path d="M133.66,38.82 L133.66,38.82 C140.178631,16.0610376 160.985902,0.373986898 184.66,0.37 L230.16,0.37 C222.812468,10.9484846 213.421214,19.9487198 202.54,26.84" id="Shape" stroke="#2D3F70" stroke-width="6" stroke-linecap="round" stroke-linejoin="round"></path>
                    <polyline id="Shape" stroke="#2D3F70" stroke-width="6" stroke-linecap="round" stroke-linejoin="round" points="94.67 262.58 90.7 206.77 175.69 206.77 171.68 263.1"></polyline>
                    <path d="M98.39,314.86 L168,314.86" id="Shape" stroke="#2D3F70" stroke-width="6" stroke-linecap="round" stroke-linejoin="round"></path>
                    <rect id="Rectangle-path" stroke="#2D3F70" stroke-width="6" stroke-linecap="round" stroke-linejoin="round" x="79.79" y="191.65" width="107.72" height="15.13" rx="4.5"></rect>
                    <path d="M174.44,191.65 L167.84,177.23 C167.640607,176.796695 167.20698,176.51933 166.73,176.52 L100.58,176.52 C100.10302,176.51933 99.6693932,176.796695 99.47,177.23 L92.87,191.65" id="Shape" stroke="#2D3F70" stroke-width="6" stroke-linecap="round" stroke-linejoin="round"></path>
                    <polyline id="Shape" stroke="#2D3F70" stroke-width="6" stroke-linecap="round" stroke-linejoin="round" points="139.68 138.13 139.68 176.52 127.63 176.52 127.63 135.32"></polyline>
                    <path d="M58.52,145.47 L58.52,209.06 C58.5282203,227.686976 67.7879034,245.093381 83.23,255.51 C89.328837,259.633226 95.7001019,263.338382 102.3,266.6 C107.398358,269.085123 109.771367,275.039299 107.78,280.35 L107.78,280.35 C106.728134,283.268379 104.492895,285.606943 101.624993,286.789524 C98.7570908,287.972105 95.5231732,287.888752 92.72,286.56 C81.0984247,281.043418 70.5719153,273.467854 61.65,264.2" id="Shape" stroke="#2D3F70" stroke-width="6" stroke-linecap="round" stroke-linejoin="round"></path>
                    <path d="M155.77,125.35 C156.891185,127.792055 157.594296,130.40506 157.85,133.08" id="Shape" stroke="#2D3F70" stroke-width="6" stroke-linecap="round" stroke-linejoin="round"></path>
                    <path d="M58.52,209.87 C58.52,277.48 10.44,273.05 4.81,227.79" id="Shape" stroke="#2D3F70" stroke-width="6" stroke-linecap="round" stroke-linejoin="round"></path>
                    <path d="M13.53,314.85 L0.42,314.85" id="Shape" stroke="#2D3F70" stroke-width="6" stroke-linecap="round" stroke-linejoin="round"></path>
                    <path d="M56.99,314.85 L23.53,314.85" id="Shape" stroke="#2D3F70" stroke-width="6" stroke-linecap="round" stroke-linejoin="round"></path>
                    <path d="M256.17,314.85 L210.32,314.85" id="Shape" stroke="#2D3F70" stroke-width="6" stroke-linecap="round" stroke-linejoin="round"></path>
                    <path d="M267.85,315 L267.75,315" id="Shape" stroke="#2D3F70" stroke-width="6" stroke-linecap="round" stroke-linejoin="round"></path>
                    <path d="M174.93,314.85 L92.38,314.85" id="Shape" stroke="#2D3F70" stroke-width="6" stroke-linecap="round" stroke-linejoin="round"></path>
                    <path d="M92.61,314.87 L108.61,314.87 L108.61,326.82 C108.61,331.238278 105.028278,334.82 100.61,334.82 L100.61,334.82 C96.191722,334.82 92.61,331.238278 92.61,326.82 L92.61,314.87 Z" id="Shape" stroke="#2D3F70" stroke-width="6" stroke-linecap="round" stroke-linejoin="round"></path>
                    <path d="M108.58,314.87 L124.58,314.87 L124.58,330.19 C124.58,334.608278 120.998278,338.19 116.58,338.19 L116.58,338.19 C112.161722,338.19 108.58,334.608278 108.58,330.19 L108.58,314.87 Z" id="Shape" stroke="#2D3F70" stroke-width="6" stroke-linecap="round" stroke-linejoin="round"></path>
                    <path d="M174.18,228.06 L125.39,228.06" id="Shape" stroke="#2D3F70" stroke-width="6" stroke-linecap="round" stroke-linejoin="round"></path>
                    <path d="M105.39,228.06 L92.22,228.06" id="Shape" stroke="#2D3F70" stroke-width="6" stroke-linecap="round" stroke-linejoin="round"></path>
                    <path d="M99.74,289.61 L166.83,289.61" id="Shape" stroke="#2D3F70" stroke-width="6" stroke-linecap="round" stroke-linejoin="round"></path>
                    <rect id="Rectangle-path" stroke="#2D3F70" stroke-width="6" stroke-linecap="round" stroke-linejoin="round" transform="translate(133.661985, 258.811903) rotate(-45.010000) translate(-133.661985, -258.811903) " x="115.506985" y="247.551903" width="36.31" height="22.52" rx="11.26"></rect>
                    <path d="M120.82,271.67 C118.487024,269.328613 118.487024,265.541387 120.82,263.2 L121.02,263.01 L121.08,262.95 C123.67784,260.473191 127.101998,259.047943 130.69,258.95 L133.69,258.83 L136.69,258.71 C140.278002,258.612057 143.70216,257.186809 146.3,254.71 L146.36,254.65 L146.57,254.46 C148.902976,252.118613 148.902976,248.331387 146.57,245.99" id="Shape" stroke="#2D3F70" stroke-width="6" stroke-linecap="round" stroke-linejoin="round"></path>
                    <path d="M128.73,61.13 C103.976667,48.0433333 79.22,48.0433333 54.46,61.13" id="Shape" stroke="#2D3F70" stroke-width="6" stroke-linecap="round" stroke-linejoin="round"></path>
                    <path d="M138.59,61.13 C163.343333,48.0433333 188.1,48.0433333 212.86,61.13" id="Shape" stroke="#2D3F70" stroke-width="6" stroke-linecap="round" stroke-linejoin="round"></path>
                    <path d="M92.72,286.53 C97.7253387,288.922389 102.895158,290.954225 108.19,292.61 C113.430547,294.280638 116.516838,299.688169 115.29,305.05 L115.29,305.05 C114.653603,307.847111 112.913737,310.268282 110.465646,311.763501 C108.017555,313.25872 105.069072,313.701047 102.29,312.99 C84.22,308.38 65.1,296.65 51.66,283.67" id="Shape" stroke="#2D3F70" stroke-width="6" stroke-linecap="round" stroke-linejoin="round"></path>
                    <path d="M208.8,145.47 L208.8,209.06 C208.79178,227.686976 199.532097,245.093381 184.09,255.51 C177.991163,259.633226 171.619898,263.338382 165.02,266.6 C159.917793,269.081602 157.540083,275.036706 159.53,280.35 L159.53,280.35 C160.581866,283.268379 162.817105,285.606943 165.685007,286.789524 C168.552909,287.972105 171.786827,287.888752 174.59,286.56 C186.211575,281.043418 196.738085,273.467854 205.66,264.2" id="Shape" stroke="#2D3F70" stroke-width="6" stroke-linecap="round" stroke-linejoin="round"></path>
                    <path d="M208.8,209.87 C208.8,277.48 256.88,273.05 262.51,227.79" id="Shape" stroke="#2D3F70" stroke-width="6" stroke-linecap="round" stroke-linejoin="round"></path>
                    <path d="M174.6,286.53 C169.594661,288.922389 164.424842,290.954225 159.13,292.61 C153.889453,294.280638 150.803162,299.688169 152.03,305.05 L152.03,305.05 C152.666397,307.847111 154.406263,310.268282 156.854354,311.763501 C159.302445,313.25872 162.250928,313.701047 165.03,312.99 C183.1,308.38 202.22,296.65 215.66,283.67" id="Shape" stroke="#2D3F70" stroke-width="6" stroke-linecap="round" stroke-linejoin="round"></path>
                    <path d="M82.3,305.35 C83.62,306.02 84.95,306.66 86.3,307.29 C90.923069,309.446542 93.4270406,314.525573 92.3224436,319.505865 C91.2178467,324.486157 86.8013175,328.030265 81.7,328.03 C80.0920411,328.031249 78.5050312,327.665279 77.06,326.96 C41.5350834,309.899877 15.7135241,277.589453 6.90649171,239.177168 C-1.90054068,200.764882 7.26574954,160.432568 31.81,129.6" id="Shape" stroke="#2D3F70" stroke-width="6" stroke-linecap="round" stroke-linejoin="round"></path>
                    <path d="M166.71,314.85 L166.71,314.85 C171.128278,314.85 174.71,318.431722 174.71,322.85 L174.71,334.8 L158.71,334.8 L158.71,322.84 C158.715518,318.425628 162.295624,314.849997 166.71,314.85 Z" id="Shape" stroke="#2D3F70" stroke-width="6" stroke-linecap="round" stroke-linejoin="round" transform="translate(166.710000, 324.825000) rotate(180.000000) translate(-166.710000, -324.825000) "></path>
                    <path d="M150.74,314.86 L150.74,314.86 C155.158278,314.86 158.74,318.441722 158.74,322.86 L158.74,338.18 L142.74,338.18 L142.74,322.85 C142.74,318.431722 146.321722,314.85 150.74,314.85 L150.74,314.86 Z" id="Shape" stroke="#2D3F70" stroke-width="6" stroke-linecap="round" stroke-linejoin="round" transform="translate(150.740000, 326.515000) rotate(180.000000) translate(-150.740000, -326.515000) "></path>
                    <path d="M235.47,129.59 C260.01425,160.422568 269.180541,200.754882 260.373508,239.167168 C251.566476,277.579453 225.744917,309.889877 190.22,326.95 C188.774969,327.655279 187.187959,328.021249 185.58,328.02 C180.478683,328.020265 176.062153,324.476157 174.957556,319.495865 C173.852959,314.515573 176.356931,309.436542 180.98,307.28 C182.35,306.65 183.68,306.01 184.98,305.34" id="Shape" stroke="#2D3F70" stroke-width="6" stroke-linecap="round" stroke-linejoin="round"></path>
                    <path d="M81.85,131.96 C90.65,134.96 94.85,134.96 107.24,134.96" id="Shape" stroke="#2D3F70" stroke-width="4" stroke-linecap="round" stroke-linejoin="round"></path>
                    <path d="M169.1,134.95 C175.19,134.95 179.1,134.95 185.45,131.95" id="Shape" stroke="#2D3F70" stroke-width="4" stroke-linecap="round" stroke-linejoin="round"></path>
                    <path d="M42.39,103.41 C45.8284881,110.890209 50.9237363,117.490094 57.29,122.71" id="Shape" stroke="#2D3F70" stroke-width="4" stroke-linecap="round" stroke-linejoin="round"></path>
                    <path d="M37.48,80.87 C37.4877045,85.7715498 38.1605096,90.6493862 39.48,95.37" id="Shape" stroke="#2D3F70" stroke-width="4" stroke-linecap="round" stroke-linejoin="round"></path>
                    <path d="M225.19,102.78 C228.246767,95.8806005 229.820726,88.416219 229.81,80.87" id="Shape" stroke="#2D3F70" stroke-width="4" stroke-linecap="round" stroke-linejoin="round"></path>
                    <path d="M209.99,122.72 C214.369722,119.130711 218.162076,114.879496 221.23,110.12" id="Shape" stroke="#2D3F70" stroke-width="4" stroke-linecap="round" stroke-linejoin="round"></path>
                    <path d="M19.81,221.84 C19.81,230.14 32.48,230.14 32.48,221.84" id="Shape" stroke="#2D3F70" stroke-width="4" stroke-linecap="round" stroke-linejoin="round"></path>
                    <path d="M32.66,198.7 C32.66,207 45.33,207 45.33,198.7" id="Shape" stroke="#2D3F70" stroke-width="4" stroke-linecap="round" stroke-linejoin="round"></path>
                    <path d="M34.48,175.55 C34.48,183.85 21.81,183.85 21.81,175.55" id="Shape" stroke="#2D3F70" stroke-width="4" stroke-linecap="round" stroke-linejoin="round"></path>
                    <path d="M247.49,221.84 C247.49,230.14 234.82,230.14 234.82,221.84" id="Shape" stroke="#2D3F70" stroke-width="4" stroke-linecap="round" stroke-linejoin="round"></path>
                    <path d="M234.65,198.7 C234.65,207 221.98,207 221.98,198.7" id="Shape" stroke="#2D3F70" stroke-width="4" stroke-linecap="round" stroke-linejoin="round"></path>
                    <path d="M232.82,175.55 C232.82,183.85 245.49,183.85 245.49,175.55" id="Shape" stroke="#2D3F70" stroke-width="4" stroke-linecap="round" stroke-linejoin="round"></path>
                </g>
                <g id="lights" opacity="0.75" transform="translate(142.000000, 57.000000)" fill-rule="nonzero" fill="#FFFFFF">
                    <ellipse id="Oval" transform="translate(15.851309, 18.411069) rotate(-69.330000) translate(-15.851309, -18.411069) " cx="15.8513094" cy="18.4110693" rx="15.56" ry="10.24"></ellipse>
                </g>
            </g>
        </g>
    </g>
</svg>